<svg version="1.1" viewBox="0.0 0.0 141.0 141.0" fill="none" stroke="none" stroke-linecap="square" stroke-miterlimit="10" xmlns:xlink="http://www.w3.org/1999/xlink" xmlns="http://www.w3.org/2000/svg">

<clipPath id="turtle_path">
<path d="m0 0l141.0 0l0 141.0l-141.0 0l0 -141.0z" clip-rule="nonzero"/>
</clipPath>

<g clip-path="url(#turtle_path)">

<!-- Background -->
<path fill="#a2c4c9" d="m0 0l141.0 0l0 141.0l-141.0 0z" clip-rule="nonzero"/>

<!-- Text: Turtle -->
<path 
fill="#45818e" 
d="m52.17375 37.1869q1.0 0.1875 1.484375 0.671875q0.5 0.484375 0.5 1.125q0 1.046875 -0.59375 1.53125q-0.578125 0.484375 -1.859375 0.390625q-2.890625 -0.234375 -4.515625 -0.3125q-1.609375 -0.078125 -4.21875 -0.109375q-1.1875 5.890625 -2.1875 11.84375q-0.34375 2.171875 -0.734375 5.046875q-0.375 2.859375 -0.515625 4.609375q-0.0625 0.9375 -0.765625 1.4375q-0.703125 0.484375 -1.6875 0.484375q-1.0625 0 -1.640625 -0.5q-0.578125 -0.515625 -0.578125 -1.359375q0 -0.765625 0.234375 -2.53125q0.25 -1.78125 0.578125 -3.734375q0.34375 -1.953125 0.53125 -3.390625q0.359375 -2.4375 0.796875 -4.828125q0.453125 -2.40625 0.90625 -4.546875q0.09375 -0.484375 0.21875 -1.109375q0.125 -0.625 0.296875 -1.390625q-3.140625 0.09375 -4.9375 0.515625q-1.78125 0.421875 -2.546875 1.171875q-0.75 0.75 -0.75 1.9375q0 1.078125 0.640625 2.078125q0.140625 0.21875 0.140625 0.46875q0 0.609375 -0.734375 1.140625q-0.71875 0.53125 -1.484375 0.53125q-0.546875 0 -0.890625 -0.328125q-0.640625 -0.53125 -1.0625 -1.53125q-0.40625 -1.015625 -0.40625 -2.296875q0 -2.71875 1.765625 -4.359375q1.78125 -1.65625 5.40625 -2.421875q3.640625 -0.78125 9.328125 -0.78125q3.53125 0 5.625 0.140625q2.09375 0.125 3.65625 0.40625zm0.25720215 26.71875q-1.5 0 -2.421875 -1.21875q-0.90625 -1.234375 -0.90625 -3.421875q0 -2.390625 0.3125 -4.390625q0.328125 -2.0 1.0625 -4.25q0.328125 -0.953125 0.90625 -1.359375q0.578125 -0.421875 1.8125 -0.421875q0.71875 0 0.984375 0.21875q0.265625 0.21875 0.265625 0.671875q0 0.25 -0.34375 1.734375q-0.328125 1.171875 -0.515625 2.140625q-0.640625 3.359375 -0.640625 4.484375q0 0.671875 0.15625 0.9375q0.171875 0.265625 0.515625 0.265625q0.484375 0 1.21875 -0.96875q0.734375 -0.984375 1.546875 -2.953125q0.8125 -1.96875 1.5625 -4.75q0.25 -0.953125 0.78125 -1.359375q0.53125 -0.421875 1.578125 -0.421875q0.703125 0 1.0 0.375q0.3125 0.359375 0.3125 1.09375q0 0.796875 -0.125 1.78125q-0.125 0.96875 -0.296875 2.0q-0.3125 2.046875 -0.515625 3.734375q-0.1875 1.671875 -0.1875 3.8125q0 1.21875 -0.5 1.75q-0.484375 0.515625 -1.609375 0.515625q-1.1875 0 -1.65625 -0.625q-0.453125 -0.625 -0.453125 -2.40625q0 -0.359375 0.0625 -1.578125q-0.546875 2.25 -1.625 3.4375q-1.0625 1.171875 -2.28125 1.171875zm24.329407 -10.6875q0.703125 0 1.1875 0.5q0.5 0.5 0.5 1.234375q0 0.40625 -0.1875 0.890625q-0.515625 1.1875 -1.453125 1.984375q-0.921875 0.796875 -2.03125 0.796875q-0.90625 0 -1.53125 -0.640625q-0.609375 -0.640625 -0.609375 -1.71875q0 -0.609375 0.0625 -1.3125q0.0625 -0.515625 0.0625 -0.703125q0 -0.265625 -0.125 -0.390625q-0.109375 -0.125 -0.265625 -0.125q-0.453125 0 -1.21875 1.078125q-0.765625 1.0625 -1.53125 2.828125q-0.765625 1.75 -1.25 3.703125q-0.34375 1.546875 -0.796875 2.0625q-0.453125 0.5 -1.46875 0.5q-1.21875 0 -1.71875 -1.28125q-0.5 -1.28125 -0.5 -4.09375q0 -4.15625 1.1875 -7.90625q0.296875 -0.921875 0.953125 -1.34375q0.65625 -0.4375 1.828125 -0.4375q0.640625 0 0.890625 0.15625q0.265625 0.15625 0.265625 0.609375q0 0.515625 -0.484375 2.296875q-0.3125 1.28125 -0.515625 2.25q-0.1875 0.953125 -0.3125 2.359375q1.0625 -2.75 2.375 -4.46875q1.3125 -1.734375 2.546875 -2.46875q1.25 -0.734375 2.28125 -0.734375q0.921875 0 1.421875 0.53125q0.5 0.515625 0.5 1.546875q0 0.609375 -0.359375 2.296875l0.296875 0zm8.183777 -1.34375q-0.0625 1.609375 -0.0625 2.5q0 2.296875 0.234375 3.59375q0.25 1.296875 0.8125 1.859375q0.5625 0.5625 1.546875 0.5625q0.515625 0 1.21875 -0.3125q0.703125 -0.328125 1.28125 -0.84375q0.34375 -0.3125 0.703125 -0.3125q0.375 0 0.609375 0.4375q0.25 0.421875 0.25 1.03125q0 0.609375 -0.25 1.1875q-0.234375 0.578125 -0.703125 0.953125q-1.671875 1.375 -3.78125 1.375q-3.046875 0 -4.453125 -2.53125q-1.40625 -2.546875 -1.40625 -6.65625q0 -1.40625 0.09375 -2.84375l-1.25 0q-0.953125 0 -1.296875 -0.34375q-0.328125 -0.359375 -0.328125 -1.125q0 -1.796875 1.4375 -1.796875l1.828125 0q0.546875 -3.515625 1.65625 -6.421875q1.125 -2.921875 2.703125 -4.640625q1.59375 -1.734375 3.421875 -1.734375q1.34375 0 2.109375 1.1875q0.765625 1.1875 0.765625 2.96875q0 4.96875 -4.15625 8.640625l3.578125 0q0.515625 0 0.734375 0.234375q0.234375 0.21875 0.234375 0.828125q0 2.203125 -3.625 2.203125l-3.90625 0zm3.390625 -12.984375q-0.46875 0 -1.0625 1.203125q-0.59375 1.1875 -1.125 3.328125q-0.53125 2.125 -0.875 4.71875q1.890625 -1.640625 2.828125 -3.671875q0.9375 -2.03125 0.9375 -3.6875q0 -1.890625 -0.703125 -1.890625zm13.794128 20.34375q0.359375 -0.3125 0.703125 -0.3125q0.390625 0 0.625 0.4375q0.25 0.421875 0.25 1.03125q0 1.34375 -0.96875 2.140625q-1.65625 1.375 -3.78125 1.375q-3.03125 0 -4.4375 -2.53125q-1.40625 -2.546875 -1.40625 -6.65625q0 -3.890625 1.0 -8.875q1.015625 -5.0 2.984375 -8.578125q1.96875 -3.59375 4.6875 -3.59375q1.53125 0 2.40625 1.421875q0.890625 1.421875 0.890625 4.078125q0 3.8125 -2.109375 8.84375q-2.09375 5.015625 -5.703125 9.90625q0.21875 1.3125 0.796875 1.890625q0.578125 0.578125 1.5625 0.578125q0.546875 0 1.234375 -0.3125q0.6875 -0.328125 1.265625 -0.84375zm-1.046875 -22.390625q-0.75 0 -1.671875 2.65625q-0.921875 2.65625 -1.625 6.59375q-0.703125 3.921875 -0.78125 7.546875q2.28125 -3.75 3.625 -7.5q1.34375 -3.765625 1.34375 -6.875q0 -2.421875 -0.890625 -2.421875zm15.026062 20.734375q0.421875 0 0.65625 0.390625q0.25 0.375 0.25 1.046875q0 1.15625 -0.546875 1.984375q-0.890625 1.375 -2.359375 2.140625q-1.453125 0.765625 -3.46875 0.765625q-3.0625 0 -4.765625 -1.828125q-1.6875 -1.84375 -1.6875 -4.984375q0 -2.203125 0.921875 -4.109375q0.921875 -1.90625 2.5625 -3.015625q1.65625 -1.125 3.734375 -1.125q1.859375 0 2.984375 1.109375q1.125 1.09375 1.125 2.984375q0 2.203125 -1.59375 3.796875q-1.578125 1.578125 -5.390625 2.5q0.765625 1.46875 2.59375 1.46875q1.3125 0 2.15625 -0.59375q0.859375 -0.609375 1.96875 -2.0625q0.390625 -0.46875 0.859375 -0.46875zm-5.234375 -5.609375q-1.1875 0 -2.015625 1.375q-0.8125 1.375 -0.8125 3.328125l0 0.0625q1.890625 -0.4375 2.96875 -1.328125q1.09375 -0.90625 1.09375 -2.09375q0 -0.609375 -0.34375 -0.96875q-0.328125 -0.375 -0.890625 -0.375z" 
fill-rule="nonzero"
/>

<!-- Text: Sec -->
<path 
fill="#45818e" 
d="m57.11235 99.99319q-4.265625 0 -6.828125 -1.609375q-2.546875 -1.609375 -2.546875 -4.9375q0 -1.765625 0.59375 -2.6875q0.609375 -0.9375 1.796875 -0.9375q0.875 0 1.40625 0.453125q0.546875 0.4375 0.546875 1.15625q0 0.625 -0.09375 1.109375q0 0.125 -0.046875 0.453125q-0.046875 0.3125 -0.046875 0.671875q0 1.4375 1.453125 2.140625q1.453125 0.703125 4.078125 0.703125q2.71875 0 4.25 -0.96875q1.546875 -0.984375 1.546875 -2.734375q0 -1.09375 -0.703125 -1.875q-0.703125 -0.78125 -1.765625 -1.3125q-1.046875 -0.53125 -2.96875 -1.296875q-2.46875 -0.96875 -4.03125 -1.828125q-1.546875 -0.859375 -2.65625 -2.34375q-1.09375 -1.5 -1.09375 -3.703125q0 -2.296875 1.234375 -4.09375q1.234375 -1.796875 3.546875 -2.78125q2.328125 -1.0 5.453125 -1.0q2.34375 0 4.296875 0.6875q1.953125 0.6875 3.109375 2.109375q1.171875 1.40625 1.171875 3.453125q0 2.015625 -0.609375 3.046875q-0.609375 1.015625 -1.78125 1.015625q-0.84375 0 -1.40625 -0.515625q-0.546875 -0.515625 -0.546875 -1.21875q0 -0.609375 0.09375 -1.125q0.09375 -0.953125 0.09375 -1.203125q0 -1.34375 -1.3125 -2.046875q-1.3125 -0.71875 -3.265625 -0.71875q-2.75 0 -4.203125 1.015625q-1.453125 1.015625 -1.453125 2.828125q0 1.21875 0.75 2.09375q0.75 0.859375 1.859375 1.4375q1.125 0.5625 3.140625 1.375q2.4375 0.984375 3.90625 1.78125q1.46875 0.796875 2.5 2.1875q1.046875 1.375 1.046875 3.390625q0 3.765625 -2.859375 5.796875q-2.859375 2.03125 -7.65625 2.03125zm24.69165 -6.421875q0.421875 0 0.65625 0.390625q0.25 0.375 0.25 1.046875q0 1.15625 -0.546875 1.984375q-0.890625 1.375 -2.359375 2.140625q-1.453125 0.765625 -3.46875 0.765625q-3.0625 0 -4.765625 -1.828125q-1.6875 -1.84375 -1.6875 -4.984375q0 -2.203125 0.921875 -4.109375q0.921875 -1.90625 2.5625 -3.015625q1.65625 -1.125 3.734375 -1.125q1.859375 0 2.984375 1.109375q1.125 1.09375 1.125 2.984375q0 2.203125 -1.59375 3.796875q-1.578125 1.578125 -5.390625 2.5q0.765625 1.46875 2.59375 1.46875q1.3125 0 2.15625 -0.59375q0.859375 -0.609375 1.96875 -2.0625q0.390625 -0.46875 0.859375 -0.46875zm-5.234375 -5.609375q-1.1875 0 -2.015625 1.375q-0.8125 1.375 -0.8125 3.328125l0 0.0625q1.890625 -0.4375 2.96875 -1.328125q1.09375 -0.90625 1.09375 -2.09375q0 -0.609375 -0.34375 -0.96875q-0.328125 -0.375 -0.890625 -0.375zm12.886414 11.9375q-3.03125 0 -4.75 -1.765625q-1.703125 -1.78125 -1.703125 -4.6875q0 -2.59375 1.015625 -4.546875q1.03125 -1.953125 2.65625 -3.0q1.640625 -1.0625 3.421875 -1.0625q1.765625 0 2.734375 1.046875q0.984375 1.03125 0.984375 2.65625q0 1.34375 -0.59375 2.28125q-0.59375 0.921875 -1.546875 0.921875q-0.609375 0 -0.984375 -0.28125q-0.359375 -0.296875 -0.359375 -0.8125q0 -0.21875 0.0625 -0.5q0.0625 -0.296875 0.09375 -0.421875q0.15625 -0.484375 0.15625 -0.890625q0 -0.421875 -0.21875 -0.640625q-0.203125 -0.234375 -0.578125 -0.234375q-0.734375 0 -1.375 0.65625q-0.640625 0.65625 -1.03125 1.78125q-0.375 1.125 -0.375 2.46875q0 1.8125 0.75 2.765625q0.75 0.9375 2.125 0.9375q1.09375 0 2.0 -0.640625q0.90625 -0.640625 1.8125 -1.890625q0.375 -0.46875 0.859375 -0.46875q0.421875 0 0.65625 0.390625q0.234375 0.375 0.234375 1.046875q0 1.15625 -0.546875 1.984375q-0.859375 1.34375 -2.265625 2.125q-1.40625 0.78125 -3.234375 0.78125z" 
fill-rule="nonzero"
/>

</g>
</svg>